#N canvas 2583 75 796 820 12;
#X obj 169 155 netreceive -u -b;
#X obj 169 179 oscparse;
#X msg 167 107 listen 9005;
#X msg 273 106 listen 0;
#X obj 126 248 route person;
#X obj 169 203 list trim;
#X obj 227 248 route people;
#X obj 162 52 bng 19 250 50 0 empty empty empty 0 -10 0 12 #fcfcfc #000000 #000000;
#X obj 270 54 bng 19 250 50 0 empty empty empty 0 -10 0 12 #fcfcfc #000000 #000000;
#X obj 40 411 unpack f f;
#X obj 86 292 route 1 2 3 4 5 6 7 8;
#X obj 117 411 unpack f f;
#X obj 195 411 unpack f f;
#X obj 273 412 unpack f f;
#X obj 350 413 unpack f f;
#X obj 427 413 unpack f f;
#X obj 504 413 unpack f f;
#X obj 581 413 unpack f f;
#X obj 44 532 *~;
#X obj 63 502 > 0;
#X obj 134 530 *~;
#X obj 214 531 *~;
#X obj 291 533 *~;
#X obj 371 530 *~;
#X obj 444 530 *~;
#X obj 523 530 *~;
#X obj 603 530 *~;
#X obj 153 500 > 1;
#X obj 233 501 > 2;
#X obj 310 503 > 3;
#X obj 390 500 > 4;
#X obj 463 500 > 5;
#X obj 542 500 > 6;
#X obj 622 500 > 7;
#X obj 50 454 voice;
#X obj 128 454 voice;
#X obj 214 451 voice;
#X obj 292 451 voice;
#X obj 373 450 voice;
#X obj 456 448 voice;
#X obj 526 449 voice;
#X obj 605 450 voice;
#X obj 85 569 +~;
#X obj 248 568 +~;
#X obj 409 567 +~;
#X obj 564 565 +~;
#X obj 169 621 +~;
#X obj 491 609 +~;
#X obj 313 666 +~;
#X obj 313 690 *~ 0.1;
#X obj 313 714 output~;
#X msg 351 106 0;
#X msg 124 101 0.1;
#X obj 185 14 loadbang;
#X obj 332 248 route quit;
#X connect 0 0 1 0;
#X connect 1 0 5 0;
#X connect 2 0 0 0;
#X connect 3 0 0 0;
#X connect 4 0 10 0;
#X connect 5 0 4 0;
#X connect 5 0 6 0;
#X connect 5 0 54 0;
#X connect 6 0 19 0;
#X connect 6 0 27 0;
#X connect 6 0 28 0;
#X connect 6 0 29 0;
#X connect 6 0 30 0;
#X connect 6 0 31 0;
#X connect 6 0 32 0;
#X connect 6 0 33 0;
#X connect 7 0 2 0;
#X connect 7 0 52 0;
#X connect 8 0 3 0;
#X connect 8 0 51 0;
#X connect 9 0 34 0;
#X connect 9 1 34 1;
#X connect 10 0 9 0;
#X connect 10 1 11 0;
#X connect 10 2 12 0;
#X connect 10 3 13 0;
#X connect 10 4 14 0;
#X connect 10 5 15 0;
#X connect 10 6 16 0;
#X connect 10 7 17 0;
#X connect 11 0 35 0;
#X connect 11 1 35 1;
#X connect 12 0 36 0;
#X connect 12 1 36 1;
#X connect 13 0 37 0;
#X connect 13 1 37 1;
#X connect 14 0 38 0;
#X connect 14 1 38 1;
#X connect 15 0 39 0;
#X connect 15 1 39 1;
#X connect 16 0 40 0;
#X connect 16 1 40 1;
#X connect 17 0 41 0;
#X connect 17 1 41 1;
#X connect 18 0 42 0;
#X connect 19 0 18 1;
#X connect 20 0 42 1;
#X connect 21 0 43 0;
#X connect 22 0 43 1;
#X connect 23 0 44 0;
#X connect 24 0 44 1;
#X connect 25 0 45 0;
#X connect 26 0 45 1;
#X connect 27 0 20 1;
#X connect 28 0 21 1;
#X connect 29 0 22 1;
#X connect 30 0 23 1;
#X connect 31 0 24 1;
#X connect 32 0 25 1;
#X connect 33 0 26 1;
#X connect 34 0 18 0;
#X connect 35 0 20 0;
#X connect 36 0 21 0;
#X connect 37 0 22 0;
#X connect 38 0 23 0;
#X connect 39 0 24 0;
#X connect 40 0 25 0;
#X connect 41 0 26 0;
#X connect 42 0 46 0;
#X connect 43 0 46 1;
#X connect 44 0 47 0;
#X connect 45 0 47 1;
#X connect 46 0 48 0;
#X connect 47 0 48 1;
#X connect 48 0 49 0;
#X connect 49 0 50 0;
#X connect 51 0 49 1;
#X connect 52 0 49 1;
#X connect 53 0 7 0;
#X connect 54 0 8 0;
