#N canvas 1697 146 796 723 12;
#X obj 151 315 + 3;
#X obj 151 339 * 10;
#X obj 151 364 + 36;
#X obj 152 393 int;
#X obj 167 416 mod 12;
#X msg 176 474 0;
#X msg 310 471 -1;
#X obj 153 506 +;
#X floatatom 153 534 5 0 0 0 - - - 0;
#X obj 153 557 mtof;
#X floatatom 153 584 10 0 0 0 - - - 0;
#X obj 154 612 phasor~ 440;
#X obj 167 440 select 0 2 4 5 7 9 11;
#X obj 321 617 vcf~;
#X obj 196 318 + 3;
#X obj 196 342 * 300;
#X obj 196 366 + 200;
#X floatatom 309 584 11 0 0 0 - - - 0;
#X obj 462 420 loadbang;
#X msg 416 579 2;
#X obj 128 254 inlet;
#X obj 191 252 inlet;
#X obj 312 667 outlet~;
#X obj 150 288 * -1;
#X obj 195 290 * -1;
#X connect 0 0 1 0;
#X connect 1 0 2 0;
#X connect 2 0 3 0;
#X connect 3 0 4 0;
#X connect 3 0 7 0;
#X connect 4 0 12 0;
#X connect 5 0 7 1;
#X connect 6 0 7 1;
#X connect 7 0 8 0;
#X connect 8 0 9 0;
#X connect 9 0 10 0;
#X connect 10 0 11 0;
#X connect 11 0 13 0;
#X connect 12 0 5 0;
#X connect 12 1 5 0;
#X connect 12 2 5 0;
#X connect 12 3 5 0;
#X connect 12 4 5 0;
#X connect 12 5 5 0;
#X connect 12 6 5 0;
#X connect 12 7 6 0;
#X connect 13 1 22 0;
#X connect 14 0 15 0;
#X connect 15 0 16 0;
#X connect 16 0 17 0;
#X connect 17 0 13 1;
#X connect 18 0 19 0;
#X connect 19 0 13 2;
#X connect 20 0 24 0;
#X connect 21 0 23 0;
#X connect 23 0 0 0;
#X connect 24 0 14 0;
